<svg width="18" height="5" viewBox="0 0 18 5" fill="none" xmlns="http://www.w3.org/2000/svg">
<path d="M4.28936 2.14468C4.28936 3.32916 3.32916 4.28936 2.14468 4.28936C0.960207 4.28936 0 3.32916 0 2.14468C0 0.960207 0.960207 0 2.14468 0C3.32916 0 4.28936 0.960207 4.28936 2.14468Z" fill="#525252" fill-opacity="0.55"/>
<path d="M10.7234 2.14468C10.7234 3.32916 9.7632 4.28936 8.57872 4.28936C7.39425 4.28936 6.43404 3.32916 6.43404 2.14468C6.43404 0.960207 7.39425 0 8.57872 0C9.7632 0 10.7234 0.960207 10.7234 2.14468Z" fill="#525252" fill-opacity="0.55"/>
<path d="M17.1574 2.14468C17.1574 3.32916 16.1972 4.28936 15.0128 4.28936C13.8283 4.28936 12.8681 3.32916 12.8681 2.14468C12.8681 0.960207 13.8283 0 15.0128 0C16.1972 0 17.1574 0.960207 17.1574 2.14468Z" fill="#525252" fill-opacity="0.55"/>
</svg>
