<svg width="20" height="21" viewBox="0 0 20 21" fill="none" xmlns="http://www.w3.org/2000/svg">
<path d="M12.9924 5.05479C12.9924 6.66593 11.6188 8.09951 10 8.09951C8.38122 8.09951 7.00758 6.66593 7.00758 5.05479C7.00758 3.38384 8.43789 1.84961 10 1.84961C11.5621 1.84961 12.9924 3.38384 12.9924 5.05479ZM18.75 15.9084C18.75 16.617 18.3712 17.4213 17.0359 18.1173C15.6593 18.8348 13.3878 19.3498 10 19.3498C6.6122 19.3498 4.34072 18.8348 2.96413 18.1173C1.62886 17.4213 1.25 16.617 1.25 15.9084C1.25 15.3835 1.75137 14.5242 3.45984 13.7227C5.06902 12.9678 7.37996 12.467 10 12.467C12.6201 12.467 14.931 12.9678 16.5402 13.7227C18.2487 14.5242 18.75 15.3835 18.75 15.9084Z" stroke="#9A9A9A" stroke-width="2.5"/>
</svg>
