<svg width="15" height="17" viewBox="0 0 15 17" fill="none" xmlns="http://www.w3.org/2000/svg">
<path d="M12.8269 8.49968C12.8563 8.51662 12.8657 8.53083 12.8707 8.53985C12.878 8.5529 12.8846 8.5735 12.8846 8.59961C12.8846 8.62572 12.878 8.64633 12.8707 8.65937C12.8657 8.66839 12.8563 8.6826 12.8269 8.69954L1.92308 14.9949C1.89375 15.0118 1.8767 15.0129 1.86638 15.0127C1.85147 15.0125 1.8303 15.0079 1.80769 14.9949C1.78508 14.9818 1.77056 14.9658 1.76288 14.953C1.75757 14.9441 1.75 14.9288 1.75 14.895L1.75 2.30427C1.75 2.2704 1.75757 2.25509 1.76288 2.24624C1.77056 2.23347 1.78508 2.2174 1.80769 2.20435C1.8303 2.19129 1.85148 2.18675 1.86638 2.18649C1.8767 2.18631 1.89375 2.18741 1.92308 2.20435L12.8269 8.49968Z" fill="#0087FF" stroke="#0087FF" stroke-width="3"/>
</svg>
